<?xml version="1.0" standalone="no"?>
<!DOCTYPE svg PUBLIC "-//W3C//DTD SVG 20010904//EN"
 "http://www.w3.org/TR/2001/REC-SVG-20010904/DTD/svg10.dtd">
<svg version="1.0" xmlns="http://www.w3.org/2000/svg"
 width="460.000000pt" height="460.000000pt" viewBox="0 0 460.000000 460.000000"
 preserveAspectRatio="xMidYMid meet">
<metadata>
Created by potrace 1.14, written by Peter Selinger 2001-2017
</metadata>
<g transform="translate(0.000000,460.000000) scale(0.100000,-0.100000)"
fill="#000000" stroke="none">
<path d="M2506 3432 c-3 -5 -16 -51 -30 -103 -14 -52 -32 -121 -41 -154 -9
-33 -25 -91 -35 -130 -10 -38 -26 -97 -35 -130 -9 -33 -30 -109 -46 -170 -27
-102 -53 -199 -94 -350 -9 -33 -25 -91 -35 -130 -10 -38 -26 -97 -35 -130 -9
-33 -26 -94 -37 -135 -11 -41 -24 -88 -28 -105 -27 -99 -52 -194 -69 -257 -11
-40 -29 -109 -41 -153 -12 -44 -35 -132 -51 -195 -17 -63 -33 -118 -35 -122
-3 -5 41 -7 97 -6 l103 3 48 180 c27 99 64 236 83 305 47 172 161 596 190 705
13 50 53 200 90 335 74 275 106 392 160 595 20 77 39 143 41 147 3 4 -40 8
-95 8 -55 0 -102 -4 -105 -8z"/>
<path d="M1329 2752 c-125 -64 -392 -200 -593 -302 l-366 -185 0 -75 0 -75
207 -106 c686 -352 978 -499 987 -499 3 0 6 52 6 115 l0 115 -142 69 c-79 38
-215 103 -303 146 -88 43 -229 110 -312 151 -84 40 -153 77 -153 83 0 5 42 30
93 54 50 25 155 75 232 112 77 37 219 105 315 151 96 46 195 94 220 107 l45
23 3 117 c1 64 -1 117 -5 116 -4 0 -110 -53 -234 -117z"/>
<path d="M3030 2752 l0 -118 93 -44 c87 -41 304 -145 660 -317 86 -42 157 -80
157 -85 0 -5 -69 -42 -152 -82 -251 -120 -383 -184 -575 -277 l-183 -88 0
-116 c0 -63 3 -115 8 -115 4 1 192 95 417 210 226 116 492 252 593 303 l183
92 -3 74 -3 74 -90 47 c-49 26 -270 138 -490 250 -220 111 -446 227 -502 256
-57 30 -105 54 -108 54 -3 0 -5 -53 -5 -118z"/>
</g>
</svg>
